<?xml version="1.0" encoding="utf-8"?>
<svg version="1.1" xmlns="http://www.w3.org/2000/svg" xmlns:xlink="http://www.w3.org/1999/xlink" viewBox="0 0 288 288">
	<defs>
		<linearGradient id="lg0" gradientUnits="userSpaceOnUse" x1="0" x2="0" y1="0" y2="288">
			<stop offset="0" style="stop-color:#158F47"/>
			<stop offset="1" style="stop-color:#0F6533"/>
		</linearGradient>
	</defs>
	<style type="text/css">
		.st0{fill:url(#lg0);}
		.st1{fill:#FFFFFF;}
	</style>
	<rect class="st0" width="288" height="288"/>
	<g class="st1">
		<path d="M0,184.75c4.114,4.703,8.593,9.083,13.373,13.107c5.13,4.32,10.569,8.702,16.653,11.605c10.583,5.05,23.76,5.216,34.153-0.43c10.962-5.955,19.608-14.81,28.321-23.54c4.147-4.156,8.19-8.476,12.554-12.404c4.064-3.659,8.949-6.658,14.361-7.718c3.413-0.669,6.992-0.606,10.31,0.502c2.918,0.975,5.26,2.913,7.634,4.809c3.678,2.94,7.311,5.987,10.644,9.32c6.333,6.475,12.522,13.214,19.251,19.29c7.427,6.705,16.382,11.993,26.411,13.414c24.059,3.407,40.877-17.25,56.134-32.504c5.573-5.572,11.574-11.802,19.229-14.418c6.303-2.154,13.693-0.36,18.975,3.468c0-7.417,0-14.833,0-22.25c-0.648-0.269-1.591-0.635-2.75-1c-7.941-2.498-16.868-1.886-24.552,1.179c-7.905,3.153-14.509,8.784-20.676,14.514c-3.252,3.022-6.374,6.178-9.522,9.307c-2.023,2.023-4.099,3.995-6.175,5.964c-3.859,3.661-7.647,7.631-12.033,10.671c-4.062,2.816-8.376,4.785-13.376,4.887c-5.224,0.107-9.204-1.933-13.369-4.837c-4.115-2.868-8.045-6.088-11.547-9.686c-7.169-7.365-14.279-14.782-22.116-21.45c-4.184-3.56-8.678-6.783-13.791-8.87c-6.09-2.485-12.832-3.43-19.378-2.887c-2.893,0.24-5.803,0.768-8.518,1.816c-1.556,0.6-3.064,1.331-4.546,2.094c-0.694,0.358-1.837,0.734-2.401,1.298c-2.677,1.545-4.695,3.006-6,4c-8.005,6.093-18.267,16.399-18.267,16.399c-5.03,5.052-10.017,10.162-15.63,14.579c-2.55,2.007-5.209,4.046-8.215,5.325c-3.251,1.383-6.82,1.898-10.334,1.603c-5.267-0.442-9.458-2.733-13.574-5.934c-5.568-4.33-10.642-9.194-15.562-14.237C10.538,166.477,5.344,161.291,0,156.25C0,165.75,0,175.25,0,184.75z"/>
		<path d="M74.25,165.75c5.167-4.917,10.333-9.833,15.5-14.75c-7.278-15.61-12.669-28.684-16.25-37.75C62.049,84.262,54.939,60.413,47.051,33.736C42.838,19.485,39.593,7.739,37.5,0c-7,0-14,0-21,0c9.245,36.186,20.377,71.862,33.237,106.924c8.709,23.747,17.544,43.508,17.544,43.508C69.604,155.538,71.927,160.644,74.25,165.75z"/>
		<path d="M199.25,188.25c4.516-6.786,10.786-16.911,17.266-30.076c0.574-1.167,1.382-2.849,2.583-5.396c3.729-7.909,10.448-22.758,17.795-42.671c11.265-30.528,20.606-61.81,29.273-93.161c1.559-5.64,3.087-11.289,4.583-16.946c-7.167,0-14.333,0-21.5,0c-12.452,49.556-27.962,98.915-49.465,145.346c-2.194,4.737-4.487,9.167-4.487,9.167c-2.117,4.054-4.412,8.228-6.9,12.497c-2.131,3.655-4.269,7.152-6.398,10.49C187.75,181.083,193.5,184.667,199.25,188.25z"/>
		<path d="M160.5,202c-6.612,5.912-15.761,7.679-24.237,5.393c-4.231-1.141-7.79-3.429-11.065-6.287c-2.954-2.577-5.71-5.302-8.255-8.283c-3.503-4.102-6.935-8.275-10.193-12.574c-4.917,5-9.833,10-14.75,15c7.7,10.872,16.927,21.563,28.823,27.922c13.241,7.078,28.974,7.856,42.712,1.745c5.385-2.395,10.359-5.703,14.715-9.667C172.333,210.833,166.417,206.417,160.5,202z"/>
	</g>
</svg>