<svg version="1.1" xmlns="http://www.w3.org/2000/svg" xmlns:xlink="http://www.w3.org/1999/xlink" x="0px" y="0px" viewBox="0 0 250 250" style="enable-background:new 0 0 250 250;" xml:space="preserve">
	<defs>
		<filter id="fl0" x="-100%" y="-100%" width="300%" height="300%">
			<feColorMatrix in="SourceGraphic" result="clO" type="matrix" values="0 0 0 0 0 0 0 0 0 0 0 0 0 0 0 0 0 0 0.4 0"/>
			<feOffset in="clO" result="ofO" dx="6.05" dy="3.75"/>
			<feGaussianBlur result="blO" in="ofO" stdDeviation="3"/>
			<feBlend in="SourceGraphic" in2="blO" mode="normal"/>
		</filter>
		<filter id="fl1" x="-100%" y="-100%" width="300%" height="300%">
			<feColorMatrix in="SourceGraphic" result="clO" type="matrix" values="0 0 0 0 0 0 0 0 0 0 0 0 0 0 0 0 0 0 0.4 0"/>
			<feOffset in="clO" result="ofO" dx="2.05" dy="0.85"/>
			<feBlend in="SourceGraphic" in2="ofO" mode="normal"/>
		</filter>
		<filter id="fl2" x="-100%" y="-100%" width="300%" height="300%">
			<feColorMatrix in="SourceGraphic" result="clO" type="matrix" values="0 0 0 0 0 0 0 0 0 0 0 0 0 0 0 0 0 0 0.4 0"/>
			<feOffset in="clO" result="ofO" dx="1.82" dy="0.69"/>
			<feBlend in="SourceGraphic" in2="ofO" mode="normal"/>
		</filter>
	</defs>
	<style type="text/css">
		.st0{fill:#606974;filter:url(#fl0);}
		.st1{fill:#FFFFFF;}
		.st2{fill:#CDCCCC;}
		.st3{fill:#55585B;filter:url(#fl1);}
		.st4{fill:#55585B;filter:url(#fl2);}
	</style>
	<path class="st0" d="M202.75,105.5c-5.218-12.056-15.378-41.319-29.369-82.118c-3.613-10.534-15.136-16.097-25.628-12.362c-40.365,14.367-80.73,28.734-121.094,43.101c-10.421,3.709-15.852,15.173-12.122,25.587l47.509,132.628c3.739,10.437,15.257,15.84,25.675,12.047C123.93,211.199,150.247,201.644,159,199c1.786-0.539,6.979-2.041,12.25-6.25c3.271-2.612,5.229-5.193,6.75-7.25c9.467-12.8,14.75-22,14.75-22c5.513-9.601,9.144-16.018,12-25.5c1.092-3.626,1.915-6.41,2.25-10.25C207.934,117.052,204.161,108.759,202.75,105.5z"/>
	<path class="st1" d="M202.25,121c-0.904,4.109-4.257,6.65-5.75,7.75c-3.285,2.42-5.152,2.344-11.75,4.5c-6.643,2.17-11.005,3.633-15.5,7c-2.781,2.083-5.667,4.245-7.25,8.25c-1.818,4.598-1.011,9.358-0.75,11c1.13,7.108,3.876,7.119,6,15.75c1.695,6.889,0.847,10.553,0,12.75c-0.905,2.334-2.726,4.197-5.039,5.154c-1.487,0.615-2.974,1.231-4.461,1.846c-23.791,8.516-47.581,17.031-71.372,25.546c-8.593,3.076-18.051-1.409-21.108-10.009c-15.578-43.833-31.156-87.667-46.735-131.5c-3.046-8.572,1.42-17.993,9.985-21.06c40.01-14.327,80.021-28.654,120.031-42.981c8.583-3.073,18.032,1.397,21.1,9.982c12.865,36.001,26.031,72.09,32.093,89.81C202.01,115.562,202.898,118.053,202.25,121z"/>
	<path class="st2" d="M170.82,187.465c-0.138,0.924,0.271,1.109,0.876,0.398c7.648-8.982,14.153-18.766,19.873-29.082c5.603-10.104,10.313-20.071,12.375-31.453c0.169-0.932-0.229-1.115-0.863-0.411c-9.24,10.274-25.046,7.979-34.736,17.727c-5.449,5.481-5.112,12.841-2.044,19.496C169.794,171.719,172.057,179.206,170.82,187.465z"/>
	<g class="st3">
		<path d="M123.6,157.17c-3.404-5.038-10.406-6.43-15.975-4.284c-8.529,3.288-8.425,14.209-5.822,21.406c1.972,5.454,5.16,11.89,11.156,13.725c6.774,2.073,14.372-2.8,15.971-9.491C130.701,171.113,127.746,163.306,123.6,157.17z M117.898,182.177c-4.731,0.293-7.347-6.235-8.685-9.808c-1.422-3.796-3.61-10.034,0.163-13.232c1.597-1.354,4.212-1.489,5.908-0.243c0.982,0.722,1.694,1.835,2.343,2.858c2.112,3.332,3.74,7.169,4.323,11.083C122.406,175.903,122.218,181.91,117.898,182.177z"/>
		<path d="M177.146,83.42c-3.404-5.038-10.406-6.43-15.975-4.284c-8.529,3.288-8.425,14.209-5.822,21.406c1.972,5.454,5.16,11.89,11.156,13.725c6.774,2.073,14.372-2.8,15.971-9.491C184.247,97.363,181.292,89.556,177.146,83.42z M171.444,108.427c-4.731,0.293-7.347-6.235-8.685-9.808c-1.422-3.796-3.61-10.034,0.163-13.232c1.597-1.354,4.212-1.489,5.908-0.243c0.982,0.722,1.694,1.835,2.343,2.858c2.112,3.332,3.74,7.169,4.323,11.083C175.952,102.153,175.764,108.16,171.444,108.427z"/>
		<path d="M141.6,96.007c-3.404-5.038-10.406-6.43-15.975-4.284c-8.529,3.288-8.425,14.209-5.822,21.406c1.972,5.454,5.16,11.89,11.156,13.725c6.774,2.073,14.372-2.8,15.971-9.491C148.701,109.951,145.746,102.144,141.6,96.007z M135.898,121.015c-4.731,0.293-7.347-6.235-8.685-9.808c-1.422-3.796-3.61-10.034,0.163-13.232c1.597-1.354,4.212-1.489,5.908-0.243c0.982,0.722,1.694,1.835,2.343,2.858c2.112,3.332,3.74,7.169,4.323,11.083C140.406,114.741,140.218,120.747,135.898,121.015z"/>
		<path d="M106.35,108.757c-3.404-5.038-10.406-6.43-15.975-4.284c-8.529,3.288-8.425,14.209-5.822,21.406c1.972,5.454,5.16,11.89,11.156,13.725c6.774,2.073,14.372-2.8,15.971-9.491C113.451,122.701,110.496,114.894,106.35,108.757z M100.648,133.765c-4.731,0.293-7.347-6.235-8.685-9.808c-1.422-3.796-3.61-10.034,0.163-13.232c1.597-1.354,4.212-1.489,5.908-0.243c0.982,0.722,1.694,1.835,2.343,2.858c2.112,3.332,3.74,7.169,4.323,11.083C105.156,127.491,104.968,133.497,100.648,133.765z"/>
		<path d="M94.35,58.257c-3.404-5.038-10.406-6.43-15.975-4.284c-8.529,3.288-8.425,14.209-5.822,21.406c1.972,5.454,5.16,11.89,11.156,13.725c6.774,2.073,14.372-2.8,15.971-9.491C101.451,72.201,98.496,64.394,94.35,58.257z M88.648,83.265c-4.731,0.293-7.347-6.235-8.685-9.808c-1.422-3.796-3.61-10.034,0.163-13.232c1.597-1.354,4.212-1.489,5.908-0.243c0.982,0.722,1.694,1.835,2.343,2.858c2.112,3.332,3.74,7.169,4.323,11.083C93.156,76.991,92.968,82.997,88.648,83.265z"/>
		<path d="M59.225,70.784c-3.404-5.038-10.406-6.43-15.975-4.284c-8.529,3.288-8.425,14.209-5.822,21.406c1.972,5.454,5.16,11.89,11.156,13.725c6.774,2.073,14.372-2.8,15.971-9.491C66.326,84.727,63.37,76.92,59.225,70.784z M53.522,95.791c-4.731,0.293-7.347-6.235-8.685-9.808C43.415,82.187,41.227,75.949,45,72.75c1.597-1.354,4.212-1.489,5.908-0.243c0.982,0.722,1.694,1.835,2.343,2.858c2.112,3.332,3.74,7.169,4.323,11.083C58.031,89.517,57.842,95.523,53.522,95.791z"/>
	</g>
	<g class="st4">
		<path d="M133.504,149.769c0.916,1.113,1.832,2.225,2.749,3.338c0.204,0.248,0.567,0.291,0.823,0.099c1.262-0.946,2.523-1.892,3.785-2.838c0.376-0.282,0.918-0.12,1.078,0.322c2.325,6.433,4.651,12.867,6.976,19.301c0.112,0.31-0.047,0.652-0.356,0.767c-1.91,0.708-3.821,1.415-5.731,2.123c-0.256,0.095-0.388,0.377-0.298,0.634c0.474,1.353,0.947,2.706,1.421,4.059c0.092,0.263,0.381,0.4,0.643,0.305c6.103-2.219,12.207-4.439,18.31-6.658c0.257-0.094,0.392-0.377,0.301-0.635c-0.473-1.352-0.946-2.704-1.42-4.056c-0.092-0.263-0.381-0.4-0.643-0.305l-4.461,1.622c-0.311,0.113-0.655-0.047-0.769-0.358c-3.272-8.96-6.545-17.92-9.817-26.88c-0.235-0.642-1.03-0.865-1.564-0.438c-3.646,2.917-7.292,5.834-10.938,8.751C133.331,149.128,133.291,149.511,133.504,149.769z"/>
		<path d="M68.025,173.228c0.916,1.113,1.832,2.225,2.749,3.338c0.204,0.248,0.567,0.291,0.823,0.099c1.262-0.946,2.523-1.892,3.785-2.838c0.376-0.282,0.918-0.12,1.078,0.322c2.325,6.433,4.651,12.867,6.976,19.301c0.112,0.31-0.047,0.652-0.356,0.767c-1.91,0.708-3.821,1.415-5.731,2.123c-0.256,0.095-0.388,0.377-0.298,0.634c0.474,1.353,0.947,2.706,1.421,4.059c0.092,0.263,0.381,0.4,0.643,0.305c6.103-2.219,12.207-4.439,18.31-6.658c0.257-0.094,0.392-0.377,0.301-0.635c-0.473-1.352-0.946-2.704-1.42-4.056c-0.092-0.263-0.381-0.4-0.643-0.305l-4.461,1.622c-0.311,0.113-0.655-0.047-0.769-0.358c-3.272-8.96-6.545-17.92-9.817-26.88c-0.235-0.642-1.03-0.865-1.564-0.438c-3.646,2.917-7.292,5.834-10.938,8.751C67.852,172.588,67.812,172.97,68.025,173.228z"/>
		<path d="M50.811,124.53c0.916,1.113,1.832,2.225,2.749,3.338c0.204,0.248,0.567,0.291,0.823,0.099c1.262-0.946,2.523-1.892,3.785-2.838c0.376-0.282,0.918-0.12,1.078,0.322c2.325,6.434,4.651,12.867,6.976,19.301c0.112,0.31-0.047,0.652-0.356,0.767c-1.91,0.708-3.821,1.415-5.731,2.123c-0.256,0.095-0.388,0.377-0.298,0.634c0.474,1.353,0.947,2.706,1.421,4.059c0.092,0.263,0.381,0.4,0.643,0.305c6.103-2.219,12.207-4.439,18.31-6.658c0.257-0.094,0.392-0.377,0.301-0.635c-0.473-1.352-0.946-2.704-1.42-4.056c-0.092-0.263-0.381-0.4-0.643-0.305l-4.461,1.622c-0.311,0.113-0.655-0.047-0.769-0.358c-3.272-8.96-6.545-17.92-9.817-26.88c-0.235-0.642-1.03-0.865-1.564-0.438c-3.646,2.917-7.292,5.834-10.938,8.751C50.638,123.889,50.598,124.272,50.811,124.53z"/>
		<path d="M134.076,40.017c0.916,1.113,1.832,2.225,2.749,3.338c0.204,0.248,0.567,0.291,0.823,0.099c1.262-0.946,2.523-1.892,3.785-2.838c0.376-0.282,0.918-0.12,1.078,0.322c2.325,6.433,4.651,12.867,6.976,19.301c0.112,0.31-0.047,0.652-0.356,0.767c-1.91,0.708-3.821,1.415-5.731,2.123c-0.256,0.095-0.388,0.377-0.298,0.634c0.474,1.353,0.947,2.706,1.421,4.059c0.092,0.263,0.381,0.4,0.643,0.305c6.103-2.219,12.207-4.439,18.31-6.658c0.257-0.094,0.392-0.377,0.301-0.635c-0.473-1.352-0.946-2.704-1.42-4.056c-0.092-0.263-0.381-0.4-0.643-0.305l-4.461,1.622c-0.311,0.113-0.655-0.047-0.769-0.358c-3.272-8.96-6.545-17.92-9.817-26.88c-0.235-0.642-1.03-0.865-1.564-0.438c-3.646,2.917-7.292,5.834-10.938,8.751C133.903,39.376,133.864,39.758,134.076,40.017z"/>
		<path d="M104.387,50.72c0.916,1.113,1.832,2.225,2.749,3.338c0.204,0.248,0.567,0.291,0.823,0.099c1.262-0.946,2.523-1.892,3.785-2.838c0.376-0.282,0.918-0.12,1.078,0.322c2.325,6.433,4.651,12.867,6.976,19.301c0.112,0.31-0.047,0.652-0.356,0.767c-1.91,0.708-3.821,1.415-5.731,2.123c-0.256,0.095-0.388,0.377-0.298,0.634c0.474,1.353,0.947,2.706,1.421,4.059c0.092,0.263,0.381,0.4,0.643,0.305c6.103-2.219,12.207-4.439,18.31-6.658c0.257-0.094,0.392-0.377,0.301-0.635c-0.473-1.352-0.946-2.704-1.42-4.056c-0.092-0.263-0.381-0.4-0.643-0.305l-4.461,1.622c-0.311,0.113-0.655-0.047-0.769-0.358c-3.272-8.96-6.545-17.92-9.817-26.88c-0.235-0.642-1.03-0.865-1.564-0.438c-3.646,2.917-7.292,5.834-10.938,8.751C104.214,50.079,104.174,50.461,104.387,50.72z"/>
	</g>
</svg>
