<?xml version="1.0" encoding="utf-8"?>
<svg version="1.1" xmlns="http://www.w3.org/2000/svg" xmlns:xlink="http://www.w3.org/1999/xlink" viewBox="0 0 512 512">
	<style type="text/css">
		.st0{fill:#3B5998;}
		.st1{fill:#FFFFFF;}
	</style>
	<path class="st0" d="M512,257.6C512,115.3,397.4,0,256,0S0,115.3,0,257.6C0,386.1,93.6,492.7,216,512c26.667,0,53.333,0,80,0C418.4,492.7,512,386.1,512,257.6z"/>
	<path class="st1" d="M355.6,332l11.4-74.5h-71v-48.3c0-20.3,9.9-40.2,41.7-40.2H370v-63.4c0,0-29.3-5-57.3-5c-58.5,0-96.7,35.7-96.7,100.2c0,18.9,0,37.8,0,56.7c-21.667,0-43.333,0-65,0V332h65v180c26.667,0,53.333,0,80,0V332H355.6z"/>
</svg>
