<?xml version="1.0" encoding="utf-8"?>
<svg version="1.1" xmlns="http://www.w3.org/2000/svg" xmlns:xlink="http://www.w3.org/1999/xlink" viewBox="0 0 640 640">
	<style type="text/css">
		.st0{fill:none;stroke:#000000;stroke-width:4.1;stroke-miterlimit:10;}
	</style>
	<circle cx="471.5" cy="321.25" r="18.75"/>
	<ellipse cx="252.75" cy="92.125" rx="19" ry="18.875"/>
	<ellipse cx="277" cy="172" rx="19" ry="18.75"/>
	<ellipse cx="107" cy="222.375" rx="19" ry="18.375"/>
	<ellipse cx="181" cy="255" rx="19" ry="18.75"/>
	<ellipse cx="327.5" cy="264.125" rx="19.25" ry="18.625"/>
	<ellipse cx="424.125" cy="207.875" rx="18.875" ry="18.625"/>
	<ellipse cx="478" cy="152.375" rx="18.75" ry="18.625"/>
	<ellipse cx="549.625" cy="324.5" rx="19.125" ry="18.75"/>
	<ellipse cx="471.25" cy="480.875" rx="19.25" ry="18.875"/>
	<ellipse cx="420.5" cy="426.75" rx="18.75" ry="19"/>
	<ellipse cx="314.75" cy="466.375" rx="19" ry="18.625"/>
	<ellipse cx="315" cy="540.375" rx="19" ry="18.625"/>
	<ellipse cx="146.875" cy="460.5" rx="18.875" ry="18.75"/>
	<ellipse cx="203.625" cy="413.5" rx="18.875" ry="18.75"/>
	<ellipse cx="380.875" cy="358.875" rx="18.875" ry="18.625"/>
	<ellipse cx="237.625" cy="324.5" rx="18.625" ry="18.5"/>
	<g class="st0">
		<path d="M181,255c48.833,3.083,97.667,6.167,146.5,9.25"/>
		<path d="M277,172c16.833,30.75,33.667,61.5,50.5,92.25"/>
		<path d="M424,208c-32.167,18.75-64.333,37.5-96.5,56.25"/>
		<path d="M181,255c18.917,23.167,37.833,46.333,56.75,69.5"/>
		<path d="M237.75,324.5c29.917-20.083,59.833-40.167,89.75-60.25"/>
		<path d="M107,222.5c24.667,10.833,49.333,21.667,74,32.5"/>
		<path d="M252.75,92.25c8.083,26.583,16.167,53.167,24.25,79.75"/>
		<path d="M478,152.5c-18,18.5-36,37-54,55.5"/>
		<path d="M327.5,264.25c48,19,96,38,144,57"/>
		<path d="M327.5,264.25c17.75,31.5,35.5,63,53.25,94.5"/>
		<path d="M146.75,460.5c18.917-15.667,37.833-31.333,56.75-47"/>
		<path d="M237.75,324.5c25.667,47.25,51.333,94.5,77,141.75"/>
		<path d="M315,540.5c-0.083-24.75-0.167-49.5-0.25-74.25"/>
		<path d="M471.5,321.25c-30.25,12.5-60.5,25-90.75,37.5"/>
		<path d="M380.75,358.75c13.25,22.667,26.5,45.333,39.75,68"/>
		<path d="M420.5,426.75c16.917,18,33.833,36,50.75,54"/>
		<path d="M549.5,324.5c-26-1.083-52-2.167-78-3.25"/>
		<path d="M203.5,413.5c11.417-29.667,22.833-59.333,34.25-89"/>
		<path d="M237.75,324.5c47.667,11.417,95.333,22.833,143,34.25"/>
		<path d="M380.75,358.75c-22,35.833-44,71.667-66,107.5"/>
		<path d="M185.5,236.25c9.07-15.215,20.092-28.898,33.915-40.085c11.646-9.426,24.676-17.483,38.467-23.364c26.999-11.514,57.394-14.881,86.328-10.228c35.842,5.764,68.68,24.645,92.142,52.281c19.495,22.963,32.335,51.643,36.041,81.561c3.704,29.902-1.593,61.509-15.045,88.491c-13.245,26.568-34.209,48.869-59.681,64.058c-29.785,17.76-65.58,25.072-99.967,20.556c-29.612-3.889-57.906-16.85-80.539-36.289c-23.889-20.518-41.219-48.631-49.065-79.11c-8.532-33.145-6.043-68.877,8.064-100.146C178.911,247.878,182.076,241.993,185.5,236.25z"/>
	</g>
</svg>
