<svg version="1.1" xmlns="http://www.w3.org/2000/svg" xmlns:xlink="http://www.w3.org/1999/xlink" viewBox="0 0 92 236">
	<path d="M90.736,115.213C77.011,78.287,63.287,41.361,49.562,4.434c-1.959-5.271-5.165-5.271-7.124,0C28.713,41.361,14.989,78.287,1.264,115.213c-0.57,1.533-0.57,4.041,0,5.574c13.725,36.926,27.45,73.852,41.174,110.778c1.959,5.271,5.165,5.271,7.124,0c13.725-36.926,27.449-73.852,41.174-110.778C91.306,119.254,91.306,116.746,90.736,115.213z M85.315,119.746c-12.886,34.586-25.773,69.171-38.659,103.757c-0.361,0.968-0.951,0.968-1.312,0c-12.886-34.586-25.773-69.171-38.659-103.757c-0.42-1.126-0.42-2.365,0-3.491C19.571,81.669,32.458,47.083,45.344,12.498c0.361-0.968,0.951-0.968,1.312,0c12.886,34.586,25.773,69.171,38.659,103.757C85.735,117.38,85.735,118.62,85.315,119.746z"/>
	<path d="M77.198,98.313c1.041,1.686,1.743,3.577,2.066,5.528c0.309,1.955,0.274,3.952-0.02,5.902c-0.61,3.909-2.203,7.596-4.244,10.949c-2.052,3.36-4.591,6.406-7.422,9.132c-2.823,2.738-5.96,5.139-9.276,7.247c-3.333,2.079-6.854,3.869-10.543,5.227c-3.68,1.372-7.521,2.341-11.432,2.736c-3.9,0.388-7.904,0.228-11.674-0.909c-1.876-0.576-3.682-1.405-5.299-2.521c-1.608-1.127-2.995-2.567-4.056-4.219c-1.036-1.668-1.739-3.539-2.066-5.476c-0.313-1.94-0.285-3.927,0.002-5.869c0.595-3.894,2.172-7.578,4.2-10.933c2.038-3.362,4.565-6.414,7.386-9.147c2.813-2.746,5.943-5.156,9.254-7.272c3.329-2.088,6.846-3.888,10.534-5.257c3.679-1.382,7.522-2.363,11.439-2.768c3.906-0.399,7.921-0.25,11.712,0.883c1.887,0.574,3.705,1.402,5.337,2.523C74.72,95.2,76.124,96.647,77.198,98.313z M72.661,101.177c-0.683-1.04-1.549-1.948-2.634-2.708c-1.096-0.747-2.391-1.352-3.822-1.787c-2.878-0.865-6.238-1.03-9.608-0.678c-6.79,0.714-13.618,3.425-19.653,7.227c-6.016,3.833-11.379,8.848-14.916,14.671c-1.753,2.891-3.033,5.99-3.475,8.944c-0.215,1.471-0.219,2.887-0.013,4.182c0.223,1.29,0.67,2.442,1.309,3.486c0.671,1.024,1.52,1.919,2.59,2.671c1.081,0.739,2.361,1.34,3.781,1.775c2.854,0.863,6.199,1.033,9.557,0.687c6.767-0.702,13.587-3.398,19.616-7.186c5.998-3.832,11.405-8.776,14.977-14.586c1.772-2.88,3.076-5.975,3.543-8.938c0.227-1.477,0.243-2.902,0.046-4.212C73.743,103.417,73.301,102.244,72.661,101.177z"/>
	<path d="M32.5,53c1.963-6.766,8.128-11.914,15.4-11.143c2.735,0.29,6.064,1.186,8.189,2.989c2.093,1.776,3.35,5.578,1.411,7.904c-2.438,2.924-7.463,1.619-8.369-1.989c-0.229-0.912-0.093-1.72,0.208-2.588c0.263-0.76,0.438-1.43-0.108-2.124c-1.023-1.3-3.149-1.489-4.629-1.141c-2.743,0.644-4.816,3.048-6.116,5.426c-1.82,3.33-2.225,7.213-2.441,10.941c-0.194,3.346-0.116,6.732,0.32,10.057c0.33,2.519,1.033,5.012,1.639,7.475c1.716,6.971,3.917,13.76,6.199,20.562c2.936,8.752,5.707,17.553,8.581,26.325c1.669,5.094,3.551,10.113,4.915,15.303c2.118,8.06,3.382,16.397,3.611,24.731c0.131,4.765-0.096,9.567-0.89,14.271c-0.579,3.425-1.896,6.633-4.293,9.189c-4.77,5.087-12.451,5.768-18.409,2.442c-2.545-1.42-5.047-4.77-3.751-7.843c1.315-3.118,6.278-3.071,8.289-0.769c1.333,1.525,0.398,2.849,0.197,4.523c-0.235,1.958,1.379,3.104,3.139,3.318c3.444,0.419,5.907-1.898,7.592-4.623c3.857-6.236,3.783-14.747,2.877-21.743c-1.007-7.778-3.379-15.407-5.865-22.821c-1.999-5.964-4.224-11.851-6.289-17.793c-3.138-9.032-6.05-18.143-8.494-27.388c-1.261-4.769-2.587-9.576-3.321-14.461c-0.927-6.167-1.415-12.455-1.128-18.69C31.123,59.86,31.527,56.353,32.5,53z"/>
	<path d="M54,113c5.333,0,10.667,0,16,0c0.362-0.046,0.464-0.178,0.5-0.25c0.07-0.141,0.136-0.6-0.346-1.105c-0.092-0.097-0.154-0.221-0.154-0.355V101.4c0-0.221-0.179-0.4-0.4-0.4h-2.2c-0.221,0-0.4,0.179-0.4,0.4v9.6c0,0.276-0.224,0.5-0.5,0.5H64c-0.276,0-0.5-0.224-0.5-0.5v-9.6c0-0.221-0.179-0.4-0.4-0.4h-2.2c-0.221,0-0.4,0.179-0.4,0.4v9.6c0,0.276-0.224,0.5-0.5,0.5h-2.5c-0.276,0-0.5-0.224-0.5-0.5v-9.6c0-0.221-0.179-0.4-0.4-0.4h-2.2c-0.221,0-0.4,0.179-0.4,0.4v9.891c0,0.134-0.062,0.258-0.154,0.355c-0.482,0.505-0.416,0.963-0.346,1.105C53.536,112.822,53.638,112.954,54,113z"/>
	<path d="M30.5,130.64v-8.94c0-0.253-0.204-0.478-0.456-0.5c-0.754-0.063-1.764-0.103-2.294,0.549c-0.335,0.412-0.351,0.865-0.786,1.013c-0.048,0.016-0.279,0.095-0.464-0.013c-0.288-0.169-0.267-0.681-0.25-1c0.02-0.367,0.103-0.948,0.436-1.665c0.165-0.354,0.524-0.585,0.914-0.585H36.4c0.39,0,0.75,0.231,0.914,0.585c0.334,0.717,0.417,1.298,0.436,1.665c0.004,0.081,0.026,0.851-0.25,1c-0.208,0.112-0.454,0.018-0.5,0c-0.46-0.176-0.51-0.735-0.75-1c-0.323-0.357-0.953-0.686-2.309-0.555c-0.251,0.024-0.441,0.245-0.441,0.497v8.848c0,0.252,0.185,0.464,0.435,0.495c0.41,0.051,0.969,0.173,1.065,0.465c0.011,0.033,0.045,0.142,0,0.25c-0.098,0.235-0.476,0.249-0.5,0.25c-1.583,0-3.167,0-4.75,0c-0.242-0.003-0.437-0.097-0.5-0.25c-0.046-0.11-0.01-0.22,0-0.25c0.096-0.292,0.582-0.415,0.92-0.466C30.362,131.005,30.5,130.835,30.5,130.64z"/>
</svg>
