<svg version="1.1" xmlns="http://www.w3.org/2000/svg" xmlns:xlink="http://www.w3.org/1999/xlink" viewBox="0 0 512 512">
	<defs>
		<linearGradient id="lg0" gradientUnits="userSpaceOnUse" x1="256" y1="32" x2="256" y2="480">
			<stop offset="0" style="stop-color:#4D4D4D"/>
			<stop offset="1" style="stop-color:#404040"/>
		</linearGradient>
	</defs>
	<style type="text/css">
		.st0{fill:url(#lg0);}
		.st1{fill:#88D9DA;}
		.st2{fill:#00E6E7;}
	</style>
	<path class="st0" d="M61,32h390c16.016,0,29,12.984,29,29v390c0,16.016-12.984,29-29,29H61c-16.016,0-29-12.984-29-29V61C32,44.984,44.984,32,61,32z"/>
	<path class="st1" d="M198.782,255.969c31.479-15.406,62.957-30.812,94.436-46.219c-45.507-31.912-91.015-63.824-136.522-95.736c-3.389-2.377-8.063-1.558-10.443,1.829c-14.748,20.99-29.496,41.98-44.243,62.971c-2.381,3.389-1.564,8.067,1.825,10.449C135.484,211.497,167.133,233.733,198.782,255.969z"/>
	<path class="st2" d="M373.436,209.75c2.122,0,4.157,0.843,5.657,2.343c12.868,12.868,25.736,25.736,38.604,38.604c2.929,2.929,2.929,7.678,0,10.607c-12.868,12.868-25.736,25.736-38.604,38.604c-1.5,1.5-3.535,2.343-5.657,2.343h-77.838c-1.647,0-3.255,0.509-4.602,1.456l-134.22,94.396c-3.381,2.378-8.048,1.572-10.436-1.802l-44.538-62.918c-2.398-3.388-1.589-8.079,1.807-10.468c52.936-37.236,105.872-74.472,158.809-111.709c1.348-0.948,2.955-1.457,4.603-1.457H373.436z"/>
</svg>
