<svg xmlns="http://www.w3.org/2000/svg" xmlns:xlink="http://www.w3.org/1999/xlink" viewBox="0 0 512 512"><defs><linearGradient id="lg0" gradientUnits="userSpaceOnUse" x1="256" y1="32" x2="256" y2="480"><stop offset="0" style="stop-color:#4D4D4D"/><stop offset="1" style="stop-color:#404040"/></linearGradient><linearGradient id="lg1" gradientUnits="userSpaceOnUse" x1="267.7493" y1="299.8306" x2="220.1852" y2="449.7715"><stop offset="0.0361" style="stop-color:#E37F00"/><stop offset="0.2011" style="stop-color:#F79000"/><stop offset="0.3643" style="stop-color:#FF9700"/></linearGradient></defs><style type="text/css">.st0{fill:url(#lg0)}.st1{fill:url(#lg1)}.st2{fill:#ff9800}</style><path class="st0" d="M480,61v390c0,16.016-12.984,29-29,29H61c-16.016,0-29-12.984-29-29V61c0-16.016,12.984-29,29-29h390C467.016,32,480,44.984,480,61z"/><path class="st1" d="M376.84,340.426c-43.987-13.987-94.377-29.984-138.889-44.094c-34.09,10.783-68.179,21.567-102.269,32.35c-4.574,1.447-7.682,5.691-7.682,10.488v77.33c0,3.722,3.619,6.369,7.166,5.242c80.389-25.555,160.777-51.11,241.166-76.665c3.901-1.24,6.725-4.517,7.468-8.433C383.005,339.557,379.901,341.399,376.84,340.426z"/><path class="st2" d="M376.838,90.21c-80.387,25.483-160.775,50.965-241.162,76.448c-4.57,1.449-7.676,5.691-7.676,10.486v76.32c0,4.797,3.103,9.04,7.678,10.486c22.07,6.979,73.367,23.22,98.072,31.051c45.517,14.427,97.719,30.999,143.09,45.426c3.547,1.128,7.16-1.522,7.16-5.244v-77.356c0-4.794-3.105-9.036-7.675-10.485c-32.732-10.381-65.464-20.761-98.196-31.141c-1.489-0.472-1.488-1.244,0-1.716c32.731-10.37,65.462-20.74,98.193-31.111c4.571-1.448,7.678-5.691,7.678-10.486V95.453C384,91.733,380.384,89.086,376.838,90.21z"/></svg>