<svg xmlns="http://www.w3.org/2000/svg" xmlns:xlink="http://www.w3.org/1999/xlink" viewBox="0 0 128 128"><defs><linearGradient id="lg0" gradientUnits="userSpaceOnUse" x1="64" y1="0" x2="64" y2="128"><stop offset="0" style="stop-color:#00C384"/><stop offset="1" style="stop-color:#00642E"/></linearGradient></defs><style type="text/css">.st0{fill:url(#lg0)}.st1{fill:#fff}</style><path class="st0" d="M64,128L64,128c35.346,0,64-28.654,64-64v0c0-35.346-28.654-64-64-64h0C28.654,0,0,28.654,0,64v0C0,99.346,28.654,128,64,128z"/><path class="st1" d="M85.5,30.25c0,4.5,0,9,0,13.5c-4.629-2.345-9.557-4.46-14.805-4.751c0,0-6.71-0.345-11.195,2.501c-0.693,0.44-1.407,1.027-1.937,1.922c-4.028,6.797,6.305,11.645,10.874,13.808c6.192,2.931,13.606,5.045,17.314,11.27c4.34,7.287,3.852,17.731-1.885,24.153c-6.482,7.255-16.841,8.344-25.99,8.058C51.884,100.523,45.71,99.673,40.5,96.5c0-4.917,0-9.833,0-14.75c2.419,1.934,5.126,3.583,8,4.75c5.436,2.208,12.414,3.252,18,1c0.531-0.214,1.207-0.49,2-1c0.996-0.64,2.284-1.468,3-3c1.699-3.636-0.849-7.441-3.884-9.38c-3.853-2.461-8.218-4.032-12.35-5.943C49.38,65.455,43.951,61.759,41.5,55.5c-1.35-3.447-1.882-7.077-1.25-10.75c0.111-0.643,0.425-2.276,1.25-4.25c2.915-6.979,10.021-11.025,17.143-12.522c4.634-0.974,9.407-0.971,14.113-0.671C77.117,27.584,81.628,28.056,85.5,30.25z"/></svg>