<svg version="1.1" xmlns="http://www.w3.org/2000/svg" xmlns:xlink="http://www.w3.org/1999/xlink" x="0px" y="0px" viewBox="0 0 64 64" style="enable-background:new 0 0 64 64;" xml:space="preserve">
	<defs>
		<linearGradient id="lg0" gradientUnits="userSpaceOnUse" x1="45.9926" y1="6.25" x2="45.9926" y2="29.7647">
			<stop offset="0" style="stop-color:#252525"/>
			<stop offset="1" style="stop-color:#414141"/>
		</linearGradient>
	</defs>
	<style type="text/css">
		.st0{fill:#244078;}
		.st1{fill:#235ED5;}
		.st2{fill:#4483E2;}
		.st3{fill:#8B8B8B;}
		.st4{fill:#CFCFCF;}
		.st5{fill:#DEDEDE;}
		.st6{fill:#252525;}
		.st7{fill:url(#lg0);}
		.st8{fill:#676767;}
	</style>
	<path class="st0" d="M4.982,50.518c-0.469,0.469-0.732,1.105-0.732,1.768V58.5c0,0.083,0.008,0.526,0.366,0.884C4.974,59.742,5.417,59.75,5.5,59.75h6.214c0.663,0,1.299-0.263,1.768-0.732L31.5,41l-12.75-4.25L4.982,50.518z"/>
	<path class="st1" d="M21,37.5c-4.721,4.721-9.443,9.443-14.164,14.164c-0.375,0.375-0.586,0.884-0.586,1.414c0,1.141,0,2.281,0,3.422c0,0.27,0.093,0.611,0.366,0.884c0.292,0.292,0.681,0.352,0.884,0.366h3.422c0.53,0,1.039-0.211,1.414-0.586L29.25,40.25L21,37.5z"/>
	<path class="st2" d="M9.25,51.664c-0.02,0.497-0.031,0.762,0.146,0.939s0.443,0.167,0.939,0.146c0.123-0.005,0.245-0.019,0.383-0.076c0.154-0.064,0.261-0.154,0.324-0.217c4.569-4.569,9.138-9.138,13.707-13.707c0,0,0,0,0,0C24,38.5,23.25,38.25,22.5,38C15.137,45.356,9.757,50.736,9.543,50.957c-0.069,0.072-0.156,0.178-0.217,0.324C9.268,51.421,9.255,51.546,9.25,51.664z"/>
	<path class="st3" d="M18.75,36.75C23.833,31.667,28.917,26.583,34,21.5c2.833,2.833,5.667,5.667,8.5,8.5c-3.667,3.667-7.333,7.333-11,11L18.75,36.75z"/>
	<path class="st4" d="M33.97,24.53c0.293-0.293,0.768-0.293,1.061,0l4.348,4.348c0.326,0.326,0.283,0.866-0.09,1.137c-3.346,3.411-6.693,6.823-10.039,10.234c-2.75-0.917-5.5-1.833-8.25-2.75L33.97,24.53z"/>
	<path class="st5" d="M22.5,38l10.457-10.457c0.096-0.08,0.345-0.264,0.707-0.293c0.133-0.011,0.542-0.044,0.836,0.25s0.261,0.703,0.25,0.836c-0.029,0.362-0.213,0.611-0.293,0.707L24.75,38.75L22.5,38z"/>
	<path class="st6" d="M48,30.689c0.016-2.451,0.773-3.725,1.5-4.439c2.055-2.019,4.94-1.098,7.75-3.5c0.913-0.78,1.362-1.585,1.551-1.924c0.885-1.585,0.969-3.134,0.949-3.969c0-2.519,0-5.038,0-7.557c-0.008-0.519-0.101-1.699-0.893-2.857c-0.52-0.759-1.127-1.196-1.442-1.398c-1.119-0.715-2.222-0.792-2.71-0.796l-7.606,0c-1.41,0-2.822,0.303-4.043,1.008C42.42,5.626,41.793,6.109,41.25,6.75c-2.303,2.717-1.167,5.98-3.5,8c-0.718,0.622-1.985,1.316-4.331,1.256c-1.826-0.047-2.804,2.11-1.512,3.401L44.59,32.09C45.843,33.343,47.988,32.462,48,30.689z"/>
	<path class="st7" d="M45.836,6.25h7.914c2.2,0,4,1.8,4,4v7.914c0,0.508-0.081,1.015-0.282,1.481c-0.158,0.365-0.385,0.752-0.718,1.105c-0.844,0.896-1.924,1.114-2.5,1.25c-1.419,0.335-5.974,1.411-7.25,4c-0.81,1.643-0.425,3.555-1.25,3.75c-0.284,0.067-0.569-0.109-0.75-0.25c-3.5-3.5-7-7-10.5-10.5c-0.141-0.181-0.317-0.466-0.25-0.75c0.195-0.825,2.138-0.38,3.75-1.25c2.622-1.415,3.692-5.946,4-7.25c0.136-0.576,0.354-1.656,1.25-2.5c0.353-0.332,0.739-0.56,1.105-0.718C44.821,6.331,45.328,6.25,45.836,6.25z"/>
	<path class="st8" d="M46.75,8.25c0.793-0.225,2.145-0.29,2.75,0.5c0.31,0.405,0.397,0.999,0.25,1.5c-0.336,1.15-1.67,1.02-2.75,2.25c-0.92,1.048-0.379,1.602-1.25,3.25c-0.677,1.281-1.678,2.2-3,3c-1.159,0.701-3.457,1.746-4.25,1c-0.035-0.033-0.244-0.229-0.25-0.5c-0.01-0.415,0.46-0.725,1.25-1.25c0.5-0.333,1-0.666,1.5-1c1.379-0.921,1.107-2.285,2.25-4.75C43.892,10.866,44.86,8.785,46.75,8.25z"/>
</svg>
