<svg xmlns="http://www.w3.org/2000/svg" xmlns:xlink="http://www.w3.org/1999/xlink" viewBox="0 0 288 288"><defs><linearGradient id="lg0" gradientUnits="userSpaceOnUse" x1="0" x2="0" y1="0" y2="288"><stop offset="0" stop-color="#158F47"/><stop offset="1" stop-color="#0F6533"/></linearGradient></defs><style type="text/css">.st0{fill:url(#lg0)}.st1{fill:#fff}</style><rect class="st0" width="288" height="288"/><g class="st1"><path d="M0,184.75c4.114,4.703,8.593,9.083,13.373,13.107c5.13,4.32,10.569,8.702,16.653,11.605c10.583,5.05,23.76,5.216,34.153-0.43c10.962-5.955,19.608-14.81,28.321-23.54c4.147-4.156,8.19-8.476,12.554-12.404c4.064-3.659,8.949-6.658,14.361-7.718c3.413-0.669,6.992-0.606,10.31,0.502c2.918,0.975,5.26,2.913,7.634,4.809c3.678,2.94,7.311,5.987,10.644,9.32c6.333,6.475,12.522,13.214,19.251,19.29c7.427,6.705,16.382,11.993,26.411,13.414c24.059,3.407,40.877-17.25,56.134-32.504c5.573-5.572,11.574-11.802,19.229-14.418c6.303-2.154,13.693-0.36,18.975,3.468c0-7.417,0-14.833,0-22.25c-0.648-0.269-1.591-0.635-2.75-1c-7.941-2.498-16.868-1.886-24.552,1.179c-7.905,3.153-14.509,8.784-20.676,14.514c-3.252,3.022-6.374,6.178-9.522,9.307c-2.023,2.023-4.099,3.995-6.175,5.964c-3.859,3.661-7.647,7.631-12.033,10.671c-4.062,2.816-8.376,4.785-13.376,4.887c-5.224,0.107-9.204-1.933-13.369-4.837c-4.115-2.868-8.045-6.088-11.547-9.686c-7.169-7.365-14.279-14.782-22.116-21.45c-4.184-3.56-8.678-6.783-13.791-8.87c-6.09-2.485-12.832-3.43-19.378-2.887c-2.893,0.24-5.803,0.768-8.518,1.816c-1.556,0.6-3.064,1.331-4.546,2.094c-0.694,0.358-1.837,0.734-2.401,1.298c-2.677,1.545-4.695,3.006-6,4c-8.005,6.093-18.267,16.399-18.267,16.399c-5.03,5.052-10.017,10.162-15.63,14.579c-2.55,2.007-5.209,4.046-8.215,5.325c-3.251,1.383-6.82,1.898-10.334,1.603c-5.267-0.442-9.458-2.733-13.574-5.934c-5.568-4.33-10.642-9.194-15.562-14.237C10.538,166.477,5.344,161.291,0,156.25C0,165.75,0,175.25,0,184.75z"/><path d="M89.769,151.577C89.592,151.203,89.5,151,89.5,151c-17.844-39.354-30.25-78-30.25-78C53.18,54.091,45.654,29.384,37.79,0c-7.013,0-14.027,0-21.04,0c1.336,5.332,2.713,10.653,4.13,15.964c8.292,31.069,18.033,61.714,29.102,91.903c7.218,19.685,14.783,39.5,24.444,58.168C79.54,161.216,84.655,156.397,89.769,151.577z"/><path d="M169.277,209.043c-3.286-2.329-6.04-4.684-8.299-6.842c-1.58,1.148-3.223,2.2-4.939,3.117c-5.573,2.978-11.969,3.915-18.156,2.567c-5.931-1.292-10.542-4.797-14.883-8.885c-7.54-7.099-13.648-14.608-16-18c-0.163-0.236-0.297-0.43-0.384-0.558c-4.804,4.874-9.607,9.748-14.41,14.622c0.32,0.438,0.626,0.886,0.95,1.322c9.351,12.57,21.584,25.94,37.034,30.671c16.473,5.044,32.553,0.091,45.671-10.329c0.877-0.697,1.734-1.413,2.576-2.145C175.665,213.17,172.546,211.359,169.277,209.043z"/><path d="M249.5,0c-9.215,34.468-18.155,63.174-25.5,85.25c-5.358,14.736-10.62,29.522-16.681,43.989c-6.805,16.243-14.567,32.994-24.458,47.967c2.353,1.986,8.554,7.017,12.533,8.39c0.609,0.21,1.792,0.618,3.398,0.624c0.908,0.003,1.724-0.126,2.437-0.307c2.044-3.364,4.012-6.765,5.939-10.153c10.5-18.462,19.086-38.035,26.714-57.836C248.664,79.552,260.016,39.734,270.5,0C263.5,0,256.5,0,249.5,0z"/></g></svg>