<svg xmlns="http://www.w3.org/2000/svg" xmlns:xlink="http://www.w3.org/1999/xlink" viewBox="0 0 512 512"><style type="text/css">.st0{fill:#894c8f}.st1{fill:#f56036}.st2{fill:#f77743}.st3{fill:#ffb629}.st4{fill:#ffc732}.st5{fill:#fe9b60}.st6{fill:#2b1d68}.st7{fill:#ffe94a}</style><path class="st0" d="M512,115.5v281c0,63.789-51.711,115.5-115.5,115.5h-281C51.711,512,0,460.289,0,396.5v-281C0,51.711,51.711,0,115.5,0h281C460.289,0,512,51.711,512,115.5z"/><path class="st1" d="M409.75,314.5c0-77.167,0-154.333,0-231.5c-51.417,38.417-102.833,76.833-154.25,115.25c-51.333-38.417-102.667-76.833-154-115.25c0,77.167,0,154.333,0,231.5C204.25,314.5,307,314.5,409.75,314.5z"/><path class="st2" d="M255.5,429.5c51.417-96.667,102.833-193.333,154.25-290c0-18.833,0-37.667,0-56.5C358.833,122,307.917,161,257,200c-1,0-2,0-3,0c-50.833-39-101.667-78-152.5-117c0,18.833,0,37.667,0,56.5C152.833,236.167,204.167,332.833,255.5,429.5z"/><path class="st3" d="M409.75,314.5C358.833,276.333,307.917,238.167,257,200c-1,0-2,0-3,0c-50.833,38.167-101.667,76.333-152.5,114.5c51.333,38.333,102.667,76.667,154,115C306.917,391.167,358.333,352.833,409.75,314.5z"/><path class="st4" d="M257,200c-1,0-2,0-3,0c-28.669,21.525-57.337,43.05-86.006,64.575c29.169,54.975,58.337,109.95,87.506,164.925c29.25-54.95,58.499-109.899,87.749-164.849C314.499,243.101,285.75,221.55,257,200z"/><path class="st5" d="M409.75,83C358.833,122,307.917,161,257,200c-1,0-2,0-3,0c-50.833-39-101.667-78-152.5-117c51.333,115.5,102.667,231,154,346.5C306.917,314,358.333,198.5,409.75,83z"/><path class="st6" d="M348.984,268.951c-5.502-4.124-11.004-8.248-16.506-12.372c-51.278,0-102.556,0-153.833-0.001c-5.475,4.111-10.951,8.222-16.426,12.333c11.005,8.332,22.01,16.663,33.016,24.995C215.823,309.27,236.412,324.635,257,340c-4.152,21.616-8.305,43.231-12.457,64.847c3.652,8.218,7.305,16.435,10.957,24.653c3.657-8.215,7.314-16.431,10.972-24.646c-3.157-21.618-6.314-43.236-9.472-64.854c19.097-15.327,38.717-30.704,58.867-46.097C326.957,285.431,337.998,277.115,348.984,268.951z"/><path class="st7" d="M257,200c-1.112,0-1.89,0.001-3.002,0.001c-25.118,18.859-50.235,37.718-75.353,56.576c21.966,49.423,43.932,98.846,65.898,148.27c10.395,0.003,11.534,0.003,21.929,0.007c22.002-49.425,44.005-98.85,66.007-148.275C307.319,237.719,282.16,218.859,257,200z"/></svg>